<mxfile host="Electron" agent="Mozilla/5.0 (Windows NT 10.0; Win64; x64) AppleWebKit/537.36 (KHTML, like Gecko) draw.io/24.7.5 Chrome/126.0.6478.183 Electron/31.3.0 Safari/537.36" version="24.7.5" pages="2">
  <diagram id="6HIuudpmVDuni2jQTYXD" name="Activity">
    <mxGraphModel dx="2943" dy="907" grid="1" gridSize="10" guides="1" tooltips="1" connect="1" arrows="1" fold="1" page="0" pageScale="1" pageWidth="850" pageHeight="1100" math="0" shadow="0">
      <root>
        <mxCell id="0" />
        <mxCell id="1" parent="0" />
        <mxCell id="GKDRDfqeq3WyiDcM14L1-1" value="Student" style="swimlane;whiteSpace=wrap" parent="1" vertex="1">
          <mxGeometry x="-1180" y="128" width="980" height="832" as="geometry" />
        </mxCell>
        <mxCell id="GKDRDfqeq3WyiDcM14L1-2" value="" style="ellipse;shape=startState;fillColor=#000000;strokeColor=#ff0000;" parent="GKDRDfqeq3WyiDcM14L1-1" vertex="1">
          <mxGeometry x="115.5" y="42" width="30" height="30" as="geometry" />
        </mxCell>
        <mxCell id="GKDRDfqeq3WyiDcM14L1-3" value="" style="edgeStyle=elbowEdgeStyle;elbow=horizontal;verticalAlign=bottom;endArrow=open;endSize=8;strokeColor=#FF0000;endFill=1;rounded=0" parent="GKDRDfqeq3WyiDcM14L1-1" source="GKDRDfqeq3WyiDcM14L1-2" target="GKDRDfqeq3WyiDcM14L1-4" edge="1">
          <mxGeometry x="-64.5" y="-88" as="geometry">
            <mxPoint x="130.5" y="112" as="targetPoint" />
          </mxGeometry>
        </mxCell>
        <mxCell id="GKDRDfqeq3WyiDcM14L1-4" value="Login to the system" style="" parent="GKDRDfqeq3WyiDcM14L1-1" vertex="1">
          <mxGeometry x="75.5" y="112" width="110" height="50" as="geometry" />
        </mxCell>
        <mxCell id="GKDRDfqeq3WyiDcM14L1-5" value="Click print button" style="" parent="GKDRDfqeq3WyiDcM14L1-1" vertex="1">
          <mxGeometry x="75.5" y="272" width="110" height="50" as="geometry" />
        </mxCell>
        <mxCell id="GKDRDfqeq3WyiDcM14L1-12" value="" style="ellipse;shape=endState;fillColor=#000000;strokeColor=#ff0000" parent="GKDRDfqeq3WyiDcM14L1-1" vertex="1">
          <mxGeometry x="460" y="762" width="30" height="30" as="geometry" />
        </mxCell>
        <mxCell id="GKDRDfqeq3WyiDcM14L1-14" style="edgeStyle=orthogonalEdgeStyle;rounded=0;orthogonalLoop=1;jettySize=auto;html=1;exitX=1;exitY=0.5;exitDx=0;exitDy=0;entryX=0;entryY=0.5;entryDx=0;entryDy=0;" parent="GKDRDfqeq3WyiDcM14L1-1" source="GKDRDfqeq3WyiDcM14L1-5" target="GKDRDfqeq3WyiDcM14L1-15" edge="1">
          <mxGeometry relative="1" as="geometry">
            <mxPoint x="270" y="297" as="targetPoint" />
          </mxGeometry>
        </mxCell>
        <mxCell id="4i63veIxNuPRlGVjWGG4-8" value="" style="edgeStyle=orthogonalEdgeStyle;rounded=0;orthogonalLoop=1;jettySize=auto;html=1;" parent="GKDRDfqeq3WyiDcM14L1-1" source="GKDRDfqeq3WyiDcM14L1-15" target="4i63veIxNuPRlGVjWGG4-5" edge="1">
          <mxGeometry relative="1" as="geometry" />
        </mxCell>
        <mxCell id="GKDRDfqeq3WyiDcM14L1-15" value="Set printing schedule" style="" parent="GKDRDfqeq3WyiDcM14L1-1" vertex="1">
          <mxGeometry x="280" y="272" width="120" height="50" as="geometry" />
        </mxCell>
        <mxCell id="GKDRDfqeq3WyiDcM14L1-17" value="Upload file" style="" parent="GKDRDfqeq3WyiDcM14L1-1" vertex="1">
          <mxGeometry x="830" y="272" width="110" height="50" as="geometry" />
        </mxCell>
        <mxCell id="GKDRDfqeq3WyiDcM14L1-19" value="" style="edgeStyle=orthogonalEdgeStyle;rounded=0;orthogonalLoop=1;jettySize=auto;html=1;" parent="GKDRDfqeq3WyiDcM14L1-1" source="GKDRDfqeq3WyiDcM14L1-20" target="GKDRDfqeq3WyiDcM14L1-25" edge="1">
          <mxGeometry relative="1" as="geometry" />
        </mxCell>
        <mxCell id="GKDRDfqeq3WyiDcM14L1-20" value="Set printing options" style="" parent="GKDRDfqeq3WyiDcM14L1-1" vertex="1">
          <mxGeometry x="830" y="382" width="110" height="50" as="geometry" />
        </mxCell>
        <mxCell id="GKDRDfqeq3WyiDcM14L1-21" style="edgeStyle=orthogonalEdgeStyle;rounded=0;orthogonalLoop=1;jettySize=auto;html=1;exitX=0.5;exitY=0;exitDx=0;exitDy=0;" parent="GKDRDfqeq3WyiDcM14L1-1" source="GKDRDfqeq3WyiDcM14L1-25" edge="1">
          <mxGeometry relative="1" as="geometry">
            <mxPoint x="140" y="322" as="targetPoint" />
            <Array as="points">
              <mxPoint x="660" y="354" />
              <mxPoint x="140" y="354" />
              <mxPoint x="140" y="322" />
            </Array>
          </mxGeometry>
        </mxCell>
        <mxCell id="GKDRDfqeq3WyiDcM14L1-22" value="Cancel" style="edgeLabel;html=1;align=center;verticalAlign=middle;resizable=0;points=[];" parent="GKDRDfqeq3WyiDcM14L1-21" vertex="1" connectable="0">
          <mxGeometry x="-0.5996" y="1" relative="1" as="geometry">
            <mxPoint as="offset" />
          </mxGeometry>
        </mxCell>
        <mxCell id="GKDRDfqeq3WyiDcM14L1-23" value="" style="edgeStyle=orthogonalEdgeStyle;rounded=0;orthogonalLoop=1;jettySize=auto;html=1;" parent="GKDRDfqeq3WyiDcM14L1-1" source="GKDRDfqeq3WyiDcM14L1-25" target="GKDRDfqeq3WyiDcM14L1-27" edge="1">
          <mxGeometry relative="1" as="geometry" />
        </mxCell>
        <mxCell id="GKDRDfqeq3WyiDcM14L1-24" value="Resume" style="edgeLabel;html=1;align=center;verticalAlign=middle;resizable=0;points=[];" parent="GKDRDfqeq3WyiDcM14L1-23" vertex="1" connectable="0">
          <mxGeometry x="-0.0187" y="-1" relative="1" as="geometry">
            <mxPoint as="offset" />
          </mxGeometry>
        </mxCell>
        <mxCell id="GKDRDfqeq3WyiDcM14L1-25" value="" style="rhombus;fillColor=#ffffc0;strokeColor=#ff0000;" parent="GKDRDfqeq3WyiDcM14L1-1" vertex="1">
          <mxGeometry x="620" y="387" width="80" height="40" as="geometry" />
        </mxCell>
        <mxCell id="GKDRDfqeq3WyiDcM14L1-27" value="Confirm printing infomation" style="" parent="GKDRDfqeq3WyiDcM14L1-1" vertex="1">
          <mxGeometry x="300" y="382" width="150" height="50" as="geometry" />
        </mxCell>
        <mxCell id="4i63veIxNuPRlGVjWGG4-10" style="edgeStyle=orthogonalEdgeStyle;rounded=0;orthogonalLoop=1;jettySize=auto;html=1;entryX=0.5;entryY=0;entryDx=0;entryDy=0;" parent="GKDRDfqeq3WyiDcM14L1-1" source="4i63veIxNuPRlGVjWGG4-2" target="4i63veIxNuPRlGVjWGG4-3" edge="1">
          <mxGeometry relative="1" as="geometry" />
        </mxCell>
        <mxCell id="4i63veIxNuPRlGVjWGG4-2" value="Booking print" style="" parent="GKDRDfqeq3WyiDcM14L1-1" vertex="1">
          <mxGeometry x="470" y="130" width="110" height="50" as="geometry" />
        </mxCell>
        <mxCell id="4i63veIxNuPRlGVjWGG4-13" value="" style="edgeStyle=orthogonalEdgeStyle;rounded=0;orthogonalLoop=1;jettySize=auto;html=1;" parent="GKDRDfqeq3WyiDcM14L1-1" source="4i63veIxNuPRlGVjWGG4-3" target="GKDRDfqeq3WyiDcM14L1-17" edge="1">
          <mxGeometry relative="1" as="geometry" />
        </mxCell>
        <mxCell id="4i63veIxNuPRlGVjWGG4-3" value="Select printer" style="" parent="GKDRDfqeq3WyiDcM14L1-1" vertex="1">
          <mxGeometry x="670" y="272" width="110" height="50" as="geometry" />
        </mxCell>
        <mxCell id="4i63veIxNuPRlGVjWGG4-7" value="" style="edgeStyle=orthogonalEdgeStyle;rounded=0;orthogonalLoop=1;jettySize=auto;html=1;" parent="GKDRDfqeq3WyiDcM14L1-1" source="4i63veIxNuPRlGVjWGG4-5" target="4i63veIxNuPRlGVjWGG4-2" edge="1">
          <mxGeometry relative="1" as="geometry" />
        </mxCell>
        <mxCell id="4i63veIxNuPRlGVjWGG4-9" value="Booking" style="edgeLabel;html=1;align=center;verticalAlign=middle;resizable=0;points=[];" parent="4i63veIxNuPRlGVjWGG4-7" vertex="1" connectable="0">
          <mxGeometry x="0.0018" relative="1" as="geometry">
            <mxPoint as="offset" />
          </mxGeometry>
        </mxCell>
        <mxCell id="4i63veIxNuPRlGVjWGG4-11" value="" style="edgeStyle=orthogonalEdgeStyle;rounded=0;orthogonalLoop=1;jettySize=auto;html=1;" parent="GKDRDfqeq3WyiDcM14L1-1" source="4i63veIxNuPRlGVjWGG4-5" target="4i63veIxNuPRlGVjWGG4-3" edge="1">
          <mxGeometry relative="1" as="geometry" />
        </mxCell>
        <mxCell id="4i63veIxNuPRlGVjWGG4-12" value="Not booking" style="edgeLabel;html=1;align=center;verticalAlign=middle;resizable=0;points=[];" parent="4i63veIxNuPRlGVjWGG4-11" vertex="1" connectable="0">
          <mxGeometry x="-0.0281" y="1" relative="1" as="geometry">
            <mxPoint x="-7" y="1" as="offset" />
          </mxGeometry>
        </mxCell>
        <mxCell id="4i63veIxNuPRlGVjWGG4-5" value="" style="rhombus;fillColor=#ffffc0;strokeColor=#ff0000;" parent="GKDRDfqeq3WyiDcM14L1-1" vertex="1">
          <mxGeometry x="485" y="277" width="80" height="40" as="geometry" />
        </mxCell>
        <mxCell id="GKDRDfqeq3WyiDcM14L1-31" value="SSPS" style="swimlane;whiteSpace=wrap" parent="1" vertex="1">
          <mxGeometry x="-200" y="128" width="1060" height="832" as="geometry" />
        </mxCell>
        <mxCell id="YklkddBsamPWfL6e4jBo-3" value="" style="edgeStyle=orthogonalEdgeStyle;rounded=0;orthogonalLoop=1;jettySize=auto;html=1;" parent="GKDRDfqeq3WyiDcM14L1-31" source="GKDRDfqeq3WyiDcM14L1-32" target="YklkddBsamPWfL6e4jBo-2" edge="1">
          <mxGeometry relative="1" as="geometry" />
        </mxCell>
        <mxCell id="YklkddBsamPWfL6e4jBo-4" value="Invalid" style="edgeLabel;html=1;align=center;verticalAlign=middle;resizable=0;points=[];" parent="YklkddBsamPWfL6e4jBo-3" vertex="1" connectable="0">
          <mxGeometry x="-0.0329" y="-2" relative="1" as="geometry">
            <mxPoint as="offset" />
          </mxGeometry>
        </mxCell>
        <mxCell id="GKDRDfqeq3WyiDcM14L1-32" value="" style="rhombus;fillColor=#ffffc0;strokeColor=#ff0000;" parent="GKDRDfqeq3WyiDcM14L1-31" vertex="1">
          <mxGeometry x="290" y="277" width="80" height="40" as="geometry" />
        </mxCell>
        <mxCell id="GKDRDfqeq3WyiDcM14L1-33" value="" style="edgeStyle=orthogonalEdgeStyle;rounded=0;orthogonalLoop=1;jettySize=auto;html=1;" parent="GKDRDfqeq3WyiDcM14L1-31" source="GKDRDfqeq3WyiDcM14L1-34" target="GKDRDfqeq3WyiDcM14L1-32" edge="1">
          <mxGeometry relative="1" as="geometry" />
        </mxCell>
        <mxCell id="GKDRDfqeq3WyiDcM14L1-34" value="Check file format" style="" parent="GKDRDfqeq3WyiDcM14L1-31" vertex="1">
          <mxGeometry x="70" y="272" width="110" height="50" as="geometry" />
        </mxCell>
        <mxCell id="NRAzxZptRmk-F_pFhzen-7" style="edgeStyle=orthogonalEdgeStyle;rounded=0;orthogonalLoop=1;jettySize=auto;html=1;entryX=1;entryY=0.5;entryDx=0;entryDy=0;exitX=0.5;exitY=1;exitDx=0;exitDy=0;" parent="GKDRDfqeq3WyiDcM14L1-31" source="GKDRDfqeq3WyiDcM14L1-36" target="GKDRDfqeq3WyiDcM14L1-42" edge="1">
          <mxGeometry relative="1" as="geometry">
            <Array as="points">
              <mxPoint x="290" y="667" />
            </Array>
          </mxGeometry>
        </mxCell>
        <mxCell id="NRAzxZptRmk-F_pFhzen-8" value="Not enough" style="edgeLabel;html=1;align=center;verticalAlign=middle;resizable=0;points=[];" parent="NRAzxZptRmk-F_pFhzen-7" vertex="1" connectable="0">
          <mxGeometry x="-0.6475" y="-1" relative="1" as="geometry">
            <mxPoint as="offset" />
          </mxGeometry>
        </mxCell>
        <mxCell id="GKDRDfqeq3WyiDcM14L1-36" value="" style="rhombus;fillColor=#ffffc0;strokeColor=#ff0000;" parent="GKDRDfqeq3WyiDcM14L1-31" vertex="1">
          <mxGeometry x="250" y="507" width="80" height="40" as="geometry" />
        </mxCell>
        <mxCell id="GKDRDfqeq3WyiDcM14L1-37" value="Enough" style="edgeStyle=orthogonalEdgeStyle;rounded=0;orthogonalLoop=1;jettySize=auto;html=1;exitX=1;exitY=0.5;exitDx=0;exitDy=0;entryX=0;entryY=0.5;entryDx=0;entryDy=0;" parent="GKDRDfqeq3WyiDcM14L1-31" source="GKDRDfqeq3WyiDcM14L1-36" target="NRAzxZptRmk-F_pFhzen-9" edge="1">
          <mxGeometry relative="1" as="geometry">
            <mxPoint x="710" y="412" as="sourcePoint" />
            <mxPoint x="420" y="527" as="targetPoint" />
          </mxGeometry>
        </mxCell>
        <mxCell id="GKDRDfqeq3WyiDcM14L1-38" value="" style="edgeStyle=orthogonalEdgeStyle;rounded=0;orthogonalLoop=1;jettySize=auto;html=1;" parent="GKDRDfqeq3WyiDcM14L1-31" source="GKDRDfqeq3WyiDcM14L1-39" target="GKDRDfqeq3WyiDcM14L1-36" edge="1">
          <mxGeometry relative="1" as="geometry" />
        </mxCell>
        <mxCell id="GKDRDfqeq3WyiDcM14L1-39" value="Check student&#39;s &#xa;remaining pages" style="" parent="GKDRDfqeq3WyiDcM14L1-31" vertex="1">
          <mxGeometry x="70" y="502" width="110" height="50" as="geometry" />
        </mxCell>
        <mxCell id="GKDRDfqeq3WyiDcM14L1-40" value="" style="edgeStyle=orthogonalEdgeStyle;rounded=0;orthogonalLoop=1;jettySize=auto;html=1;" parent="GKDRDfqeq3WyiDcM14L1-31" source="GKDRDfqeq3WyiDcM14L1-41" target="GKDRDfqeq3WyiDcM14L1-45" edge="1">
          <mxGeometry relative="1" as="geometry" />
        </mxCell>
        <mxCell id="GKDRDfqeq3WyiDcM14L1-41" value="Make the&#xa;printing" style="" parent="GKDRDfqeq3WyiDcM14L1-31" vertex="1">
          <mxGeometry x="750" y="502" width="110" height="50" as="geometry" />
        </mxCell>
        <mxCell id="GKDRDfqeq3WyiDcM14L1-45" value="" style="rhombus;fillColor=#ffffc0;strokeColor=#ff0000;" parent="GKDRDfqeq3WyiDcM14L1-31" vertex="1">
          <mxGeometry x="900" y="507" width="80" height="40" as="geometry" />
        </mxCell>
        <mxCell id="YklkddBsamPWfL6e4jBo-2" value="Give warning that &#xa;invalid file format" style="" parent="GKDRDfqeq3WyiDcM14L1-31" vertex="1">
          <mxGeometry x="560" y="272" width="110" height="50" as="geometry" />
        </mxCell>
        <mxCell id="GKDRDfqeq3WyiDcM14L1-11" value="Buy more paper" style="" parent="GKDRDfqeq3WyiDcM14L1-31" vertex="1">
          <mxGeometry x="-904.5" y="642" width="110" height="48" as="geometry" />
        </mxCell>
        <mxCell id="NRAzxZptRmk-F_pFhzen-2" style="edgeStyle=orthogonalEdgeStyle;rounded=0;orthogonalLoop=1;jettySize=auto;html=1;entryX=1;entryY=0.5;entryDx=0;entryDy=0;" parent="GKDRDfqeq3WyiDcM14L1-31" source="NRAzxZptRmk-F_pFhzen-1" target="GKDRDfqeq3WyiDcM14L1-11" edge="1">
          <mxGeometry relative="1" as="geometry" />
        </mxCell>
        <mxCell id="NRAzxZptRmk-F_pFhzen-5" value="Buy more paper" style="edgeLabel;html=1;align=center;verticalAlign=middle;resizable=0;points=[];" parent="NRAzxZptRmk-F_pFhzen-2" vertex="1" connectable="0">
          <mxGeometry x="0.0008" y="-3" relative="1" as="geometry">
            <mxPoint as="offset" />
          </mxGeometry>
        </mxCell>
        <mxCell id="NRAzxZptRmk-F_pFhzen-1" value="" style="rhombus;fillColor=#ffffc0;strokeColor=#ff0000;" parent="GKDRDfqeq3WyiDcM14L1-31" vertex="1">
          <mxGeometry x="-545" y="646" width="80" height="40" as="geometry" />
        </mxCell>
        <mxCell id="GKDRDfqeq3WyiDcM14L1-42" value="Notify user that &#xa;run out of printing pages " style="" parent="GKDRDfqeq3WyiDcM14L1-31" vertex="1">
          <mxGeometry x="70" y="642" width="140" height="50" as="geometry" />
        </mxCell>
        <mxCell id="GKDRDfqeq3WyiDcM14L1-65" style="edgeStyle=orthogonalEdgeStyle;rounded=0;orthogonalLoop=1;jettySize=auto;html=1;entryX=1;entryY=0.5;entryDx=0;entryDy=0;" parent="GKDRDfqeq3WyiDcM14L1-31" source="GKDRDfqeq3WyiDcM14L1-42" target="NRAzxZptRmk-F_pFhzen-1" edge="1">
          <mxGeometry relative="1" as="geometry">
            <Array as="points">
              <mxPoint x="-320" y="667" />
            </Array>
          </mxGeometry>
        </mxCell>
        <mxCell id="NRAzxZptRmk-F_pFhzen-11" value="" style="edgeStyle=orthogonalEdgeStyle;rounded=0;orthogonalLoop=1;jettySize=auto;html=1;" parent="GKDRDfqeq3WyiDcM14L1-31" source="NRAzxZptRmk-F_pFhzen-9" target="NRAzxZptRmk-F_pFhzen-10" edge="1">
          <mxGeometry relative="1" as="geometry" />
        </mxCell>
        <mxCell id="NRAzxZptRmk-F_pFhzen-9" value="Check printer&#39;s &#xa;remaining pages" style="" parent="GKDRDfqeq3WyiDcM14L1-31" vertex="1">
          <mxGeometry x="430" y="502" width="110" height="50" as="geometry" />
        </mxCell>
        <mxCell id="NRAzxZptRmk-F_pFhzen-12" value="" style="edgeStyle=orthogonalEdgeStyle;rounded=0;orthogonalLoop=1;jettySize=auto;html=1;" parent="GKDRDfqeq3WyiDcM14L1-31" source="NRAzxZptRmk-F_pFhzen-10" target="GKDRDfqeq3WyiDcM14L1-41" edge="1">
          <mxGeometry relative="1" as="geometry" />
        </mxCell>
        <mxCell id="NRAzxZptRmk-F_pFhzen-13" value="Enough" style="edgeLabel;html=1;align=center;verticalAlign=middle;resizable=0;points=[];" parent="NRAzxZptRmk-F_pFhzen-12" vertex="1" connectable="0">
          <mxGeometry x="-0.0655" relative="1" as="geometry">
            <mxPoint as="offset" />
          </mxGeometry>
        </mxCell>
        <mxCell id="NRAzxZptRmk-F_pFhzen-15" style="edgeStyle=orthogonalEdgeStyle;rounded=0;orthogonalLoop=1;jettySize=auto;html=1;entryX=1;entryY=0.5;entryDx=0;entryDy=0;" parent="GKDRDfqeq3WyiDcM14L1-31" source="NRAzxZptRmk-F_pFhzen-10" target="NRAzxZptRmk-F_pFhzen-14" edge="1">
          <mxGeometry relative="1" as="geometry">
            <Array as="points">
              <mxPoint x="630" y="711" />
            </Array>
          </mxGeometry>
        </mxCell>
        <mxCell id="NRAzxZptRmk-F_pFhzen-17" value="Not enough" style="edgeLabel;html=1;align=center;verticalAlign=middle;resizable=0;points=[];" parent="NRAzxZptRmk-F_pFhzen-15" vertex="1" connectable="0">
          <mxGeometry x="-0.606" y="-1" relative="1" as="geometry">
            <mxPoint as="offset" />
          </mxGeometry>
        </mxCell>
        <mxCell id="NRAzxZptRmk-F_pFhzen-10" value="" style="rhombus;fillColor=#ffffc0;strokeColor=#ff0000;" parent="GKDRDfqeq3WyiDcM14L1-31" vertex="1">
          <mxGeometry x="590" y="507" width="80" height="40" as="geometry" />
        </mxCell>
        <mxCell id="NRAzxZptRmk-F_pFhzen-14" value="Notify user that run out of &#xa;printer&#39;s available pages " style="" parent="GKDRDfqeq3WyiDcM14L1-31" vertex="1">
          <mxGeometry x="420" y="686" width="150" height="50" as="geometry" />
        </mxCell>
        <mxCell id="GKDRDfqeq3WyiDcM14L1-47" value="HCMUT_SSO" style="swimlane;whiteSpace=wrap" parent="1" vertex="1">
          <mxGeometry x="-1450" y="128" width="270" height="832" as="geometry" />
        </mxCell>
        <mxCell id="GKDRDfqeq3WyiDcM14L1-48" style="edgeStyle=orthogonalEdgeStyle;rounded=0;orthogonalLoop=1;jettySize=auto;html=1;entryX=0.5;entryY=0;entryDx=0;entryDy=0;" parent="GKDRDfqeq3WyiDcM14L1-47" source="GKDRDfqeq3WyiDcM14L1-49" target="GKDRDfqeq3WyiDcM14L1-52" edge="1">
          <mxGeometry relative="1" as="geometry" />
        </mxCell>
        <mxCell id="GKDRDfqeq3WyiDcM14L1-49" value="Authorize" style="" parent="GKDRDfqeq3WyiDcM14L1-47" vertex="1">
          <mxGeometry x="70" y="112" width="110" height="50" as="geometry" />
        </mxCell>
        <mxCell id="GKDRDfqeq3WyiDcM14L1-50" style="edgeStyle=orthogonalEdgeStyle;rounded=0;orthogonalLoop=1;jettySize=auto;html=1;entryX=0.5;entryY=0;entryDx=0;entryDy=0;" parent="GKDRDfqeq3WyiDcM14L1-47" source="GKDRDfqeq3WyiDcM14L1-52" target="GKDRDfqeq3WyiDcM14L1-53" edge="1">
          <mxGeometry relative="1" as="geometry">
            <mxPoint x="125" y="862" as="targetPoint" />
          </mxGeometry>
        </mxCell>
        <mxCell id="GKDRDfqeq3WyiDcM14L1-51" value="Invalid" style="edgeLabel;html=1;align=center;verticalAlign=middle;resizable=0;points=[];" parent="GKDRDfqeq3WyiDcM14L1-50" vertex="1" connectable="0">
          <mxGeometry x="-0.1403" relative="1" as="geometry">
            <mxPoint as="offset" />
          </mxGeometry>
        </mxCell>
        <mxCell id="GKDRDfqeq3WyiDcM14L1-52" value="" style="rhombus;fillColor=#ffffc0;strokeColor=#ff0000;" parent="GKDRDfqeq3WyiDcM14L1-47" vertex="1">
          <mxGeometry x="85" y="212" width="80" height="40" as="geometry" />
        </mxCell>
        <mxCell id="GKDRDfqeq3WyiDcM14L1-53" value="Give warning that &#xa;invalid login" style="" parent="GKDRDfqeq3WyiDcM14L1-47" vertex="1">
          <mxGeometry x="70" y="752" width="110" height="50" as="geometry" />
        </mxCell>
        <mxCell id="GKDRDfqeq3WyiDcM14L1-54" style="edgeStyle=orthogonalEdgeStyle;rounded=0;orthogonalLoop=1;jettySize=auto;html=1;entryX=0.5;entryY=0;entryDx=0;entryDy=0;" parent="1" source="GKDRDfqeq3WyiDcM14L1-52" target="GKDRDfqeq3WyiDcM14L1-5" edge="1">
          <mxGeometry relative="1" as="geometry">
            <mxPoint x="-1202.6149999999998" y="360.3499999999999" as="targetPoint" />
          </mxGeometry>
        </mxCell>
        <mxCell id="GKDRDfqeq3WyiDcM14L1-55" value="Valid" style="edgeLabel;html=1;align=center;verticalAlign=middle;resizable=0;points=[];" parent="GKDRDfqeq3WyiDcM14L1-54" vertex="1" connectable="0">
          <mxGeometry x="-0.9487" y="-1" relative="1" as="geometry">
            <mxPoint x="47" y="-1" as="offset" />
          </mxGeometry>
        </mxCell>
        <mxCell id="GKDRDfqeq3WyiDcM14L1-58" value="" style="edgeStyle=orthogonalEdgeStyle;rounded=0;orthogonalLoop=1;jettySize=auto;html=1;" parent="1" source="GKDRDfqeq3WyiDcM14L1-17" target="GKDRDfqeq3WyiDcM14L1-34" edge="1">
          <mxGeometry relative="1" as="geometry" />
        </mxCell>
        <mxCell id="GKDRDfqeq3WyiDcM14L1-59" style="edgeStyle=orthogonalEdgeStyle;rounded=0;orthogonalLoop=1;jettySize=auto;html=1;exitX=0.5;exitY=0;exitDx=0;exitDy=0;entryX=0.5;entryY=0;entryDx=0;entryDy=0;" parent="1" source="YklkddBsamPWfL6e4jBo-2" target="GKDRDfqeq3WyiDcM14L1-17" edge="1">
          <mxGeometry relative="1" as="geometry">
            <Array as="points">
              <mxPoint x="415" y="380" />
              <mxPoint x="-295" y="380" />
            </Array>
          </mxGeometry>
        </mxCell>
        <mxCell id="GKDRDfqeq3WyiDcM14L1-61" style="edgeStyle=orthogonalEdgeStyle;rounded=0;orthogonalLoop=1;jettySize=auto;html=1;exitX=0.5;exitY=1;exitDx=0;exitDy=0;entryX=1;entryY=0.5;entryDx=0;entryDy=0;" parent="1" source="GKDRDfqeq3WyiDcM14L1-32" target="GKDRDfqeq3WyiDcM14L1-20" edge="1">
          <mxGeometry relative="1" as="geometry" />
        </mxCell>
        <mxCell id="GKDRDfqeq3WyiDcM14L1-62" value="Valid" style="edgeLabel;html=1;align=center;verticalAlign=middle;resizable=0;points=[];" parent="GKDRDfqeq3WyiDcM14L1-61" vertex="1" connectable="0">
          <mxGeometry x="-0.6685" y="1" relative="1" as="geometry">
            <mxPoint x="-1" y="-34" as="offset" />
          </mxGeometry>
        </mxCell>
        <mxCell id="GKDRDfqeq3WyiDcM14L1-66" style="edgeStyle=orthogonalEdgeStyle;rounded=0;orthogonalLoop=1;jettySize=auto;html=1;exitX=0;exitY=0.5;exitDx=0;exitDy=0;entryX=1;entryY=0.5;entryDx=0;entryDy=0;" parent="1" source="GKDRDfqeq3WyiDcM14L1-4" target="GKDRDfqeq3WyiDcM14L1-49" edge="1">
          <mxGeometry relative="1" as="geometry" />
        </mxCell>
        <mxCell id="GKDRDfqeq3WyiDcM14L1-70" style="edgeStyle=orthogonalEdgeStyle;rounded=0;orthogonalLoop=1;jettySize=auto;html=1;exitX=0.5;exitY=1;exitDx=0;exitDy=0;entryX=0;entryY=0.5;entryDx=0;entryDy=0;" parent="1" source="GKDRDfqeq3WyiDcM14L1-27" target="GKDRDfqeq3WyiDcM14L1-39" edge="1">
          <mxGeometry relative="1" as="geometry" />
        </mxCell>
        <mxCell id="GKDRDfqeq3WyiDcM14L1-56" style="edgeStyle=orthogonalEdgeStyle;rounded=0;orthogonalLoop=1;jettySize=auto;html=1;entryX=1;entryY=0.5;entryDx=0;entryDy=0;exitX=1;exitY=0.5;exitDx=0;exitDy=0;" parent="1" source="GKDRDfqeq3WyiDcM14L1-45" target="GKDRDfqeq3WyiDcM14L1-12" edge="1">
          <mxGeometry relative="1" as="geometry">
            <Array as="points">
              <mxPoint x="840" y="655" />
              <mxPoint x="840" y="905" />
            </Array>
            <mxPoint x="-700" y="880" as="targetPoint" />
          </mxGeometry>
        </mxCell>
        <mxCell id="GKDRDfqeq3WyiDcM14L1-57" value="Success" style="edgeLabel;html=1;align=center;verticalAlign=middle;resizable=0;points=[];" parent="GKDRDfqeq3WyiDcM14L1-56" vertex="1" connectable="0">
          <mxGeometry x="-0.9067" y="2" relative="1" as="geometry">
            <mxPoint x="-32" y="-25" as="offset" />
          </mxGeometry>
        </mxCell>
        <mxCell id="hS_AV6T1pqVw71CIB5NV-2" style="edgeStyle=orthogonalEdgeStyle;rounded=0;orthogonalLoop=1;jettySize=auto;html=1;entryX=0;entryY=0.5;entryDx=0;entryDy=0;" parent="1" source="GKDRDfqeq3WyiDcM14L1-53" target="GKDRDfqeq3WyiDcM14L1-12" edge="1">
          <mxGeometry relative="1" as="geometry" />
        </mxCell>
        <mxCell id="GKDRDfqeq3WyiDcM14L1-43" style="edgeStyle=orthogonalEdgeStyle;rounded=0;orthogonalLoop=1;jettySize=auto;html=1;exitX=0.5;exitY=0;exitDx=0;exitDy=0;" parent="1" source="GKDRDfqeq3WyiDcM14L1-45" edge="1">
          <mxGeometry relative="1" as="geometry">
            <Array as="points">
              <mxPoint x="740" y="600" />
              <mxPoint x="-760" y="600" />
            </Array>
            <mxPoint x="-760" y="560" as="targetPoint" />
          </mxGeometry>
        </mxCell>
        <mxCell id="GKDRDfqeq3WyiDcM14L1-44" value="Occur error" style="edgeLabel;html=1;align=center;verticalAlign=middle;resizable=0;points=[];" parent="GKDRDfqeq3WyiDcM14L1-43" vertex="1" connectable="0">
          <mxGeometry x="0.0296" y="-1" relative="1" as="geometry">
            <mxPoint x="710" as="offset" />
          </mxGeometry>
        </mxCell>
        <mxCell id="GKDRDfqeq3WyiDcM14L1-72" style="edgeStyle=orthogonalEdgeStyle;rounded=0;orthogonalLoop=1;jettySize=auto;html=1;exitX=0.25;exitY=0;exitDx=0;exitDy=0;entryX=0.25;entryY=1;entryDx=0;entryDy=0;" parent="1" source="GKDRDfqeq3WyiDcM14L1-11" target="GKDRDfqeq3WyiDcM14L1-5" edge="1">
          <mxGeometry relative="1" as="geometry" />
        </mxCell>
        <mxCell id="NRAzxZptRmk-F_pFhzen-4" style="edgeStyle=orthogonalEdgeStyle;rounded=0;orthogonalLoop=1;jettySize=auto;html=1;entryX=0.5;entryY=0;entryDx=0;entryDy=0;" parent="1" source="NRAzxZptRmk-F_pFhzen-1" target="GKDRDfqeq3WyiDcM14L1-12" edge="1">
          <mxGeometry relative="1" as="geometry" />
        </mxCell>
        <mxCell id="NRAzxZptRmk-F_pFhzen-6" value="Exit" style="edgeLabel;html=1;align=center;verticalAlign=middle;resizable=0;points=[];" parent="NRAzxZptRmk-F_pFhzen-4" vertex="1" connectable="0">
          <mxGeometry x="-0.0775" y="2" relative="1" as="geometry">
            <mxPoint as="offset" />
          </mxGeometry>
        </mxCell>
        <mxCell id="NRAzxZptRmk-F_pFhzen-16" style="edgeStyle=orthogonalEdgeStyle;rounded=0;orthogonalLoop=1;jettySize=auto;html=1;entryX=0.607;entryY=1.008;entryDx=0;entryDy=0;entryPerimeter=0;" parent="1" source="NRAzxZptRmk-F_pFhzen-14" target="4i63veIxNuPRlGVjWGG4-3" edge="1">
          <mxGeometry relative="1" as="geometry" />
        </mxCell>
      </root>
    </mxGraphModel>
  </diagram>
  <diagram id="OY2lBh-2cs0mhRsI-a2k" name="Component">
    <mxGraphModel dx="5908" dy="2268" grid="1" gridSize="10" guides="1" tooltips="1" connect="1" arrows="1" fold="1" page="1" pageScale="1" pageWidth="850" pageHeight="1100" math="0" shadow="0">
      <root>
        <mxCell id="0" />
        <mxCell id="1" parent="0" />
        <mxCell id="aWz43SULXHOgwargIqAo-1" value="&lt;p style=&quot;margin:0px;margin-top:6px;text-align:center;&quot;&gt;&lt;b&gt;&amp;lt;&amp;lt;subsystem&amp;gt;&amp;gt;&lt;/b&gt;&lt;/p&gt;&lt;p style=&quot;margin:0px;margin-top:6px;text-align:center;&quot;&gt;&lt;b&gt;Printing&lt;/b&gt;&lt;/p&gt;&lt;hr size=&quot;1&quot; style=&quot;border-style:solid;&quot;&gt;&lt;p style=&quot;margin:0px;margin-left:8px;&quot;&gt;&lt;br&gt;&lt;br&gt;&lt;/p&gt;" style="align=left;overflow=fill;html=1;dropTarget=0;whiteSpace=wrap;rotation=0;" parent="1" vertex="1">
          <mxGeometry x="-1810" y="1044.5" width="3340" height="749" as="geometry" />
        </mxCell>
        <mxCell id="aWz43SULXHOgwargIqAo-2" value="" style="shape=component;jettyWidth=8;jettyHeight=4;" parent="aWz43SULXHOgwargIqAo-1" vertex="1">
          <mxGeometry x="1" width="20" height="20" relative="1" as="geometry">
            <mxPoint x="-24" y="4" as="offset" />
          </mxGeometry>
        </mxCell>
        <mxCell id="aWz43SULXHOgwargIqAo-3" value="&lt;p style=&quot;margin:0px;margin-top:6px;text-align:center;&quot;&gt;&lt;b&gt;&amp;lt;&amp;lt;subsystem&amp;gt;&amp;gt;&lt;/b&gt;&lt;/p&gt;&lt;p style=&quot;margin:0px;margin-top:6px;text-align:center;&quot;&gt;&lt;b&gt;Remaining page&lt;/b&gt;&lt;/p&gt;&lt;hr size=&quot;1&quot; style=&quot;border-style:solid;&quot;&gt;&lt;p style=&quot;margin:0px;margin-left:8px;&quot;&gt;&lt;br&gt;&lt;br&gt;&lt;/p&gt;" style="align=left;overflow=fill;html=1;dropTarget=0;whiteSpace=wrap;rotation=0;" parent="1" vertex="1">
          <mxGeometry x="225" y="1309" width="700" height="472" as="geometry" />
        </mxCell>
        <mxCell id="aWz43SULXHOgwargIqAo-4" value="" style="shape=component;jettyWidth=8;jettyHeight=4;" parent="aWz43SULXHOgwargIqAo-3" vertex="1">
          <mxGeometry x="1" width="20" height="20" relative="1" as="geometry">
            <mxPoint x="-24" y="4" as="offset" />
          </mxGeometry>
        </mxCell>
        <mxCell id="aWz43SULXHOgwargIqAo-5" value="«component»&lt;br&gt;&lt;b&gt;User Authentication&lt;/b&gt;" style="html=1;dropTarget=0;whiteSpace=wrap;" parent="1" vertex="1">
          <mxGeometry x="-1780" y="1389" width="180" height="90" as="geometry" />
        </mxCell>
        <mxCell id="aWz43SULXHOgwargIqAo-6" value="" style="shape=module;jettyWidth=8;jettyHeight=4;" parent="aWz43SULXHOgwargIqAo-5" vertex="1">
          <mxGeometry x="1" width="20" height="20" relative="1" as="geometry">
            <mxPoint x="-27" y="7" as="offset" />
          </mxGeometry>
        </mxCell>
        <mxCell id="aWz43SULXHOgwargIqAo-7" value="«component»&lt;br&gt;&lt;b&gt;Printing Booking&lt;/b&gt;" style="html=1;dropTarget=0;whiteSpace=wrap;" parent="1" vertex="1">
          <mxGeometry x="-960" y="1509" width="180" height="90" as="geometry" />
        </mxCell>
        <mxCell id="aWz43SULXHOgwargIqAo-8" value="" style="shape=module;jettyWidth=8;jettyHeight=4;" parent="aWz43SULXHOgwargIqAo-7" vertex="1">
          <mxGeometry x="1" width="20" height="20" relative="1" as="geometry">
            <mxPoint x="-27" y="7" as="offset" />
          </mxGeometry>
        </mxCell>
        <mxCell id="aWz43SULXHOgwargIqAo-9" value="" style="ellipse;whiteSpace=wrap;html=1;align=center;aspect=fixed;fillColor=none;strokeColor=none;resizable=0;perimeter=centerPerimeter;rotatable=0;allowArrows=0;points=[];outlineConnect=1;" parent="1" vertex="1">
          <mxGeometry x="-320" y="1680" width="10" height="10" as="geometry" />
        </mxCell>
        <mxCell id="aWz43SULXHOgwargIqAo-10" value="" style="ellipse;whiteSpace=wrap;html=1;align=center;aspect=fixed;fillColor=none;strokeColor=none;resizable=0;perimeter=centerPerimeter;rotatable=0;allowArrows=0;points=[];outlineConnect=1;" parent="1" vertex="1">
          <mxGeometry x="-305" y="1680" width="10" height="10" as="geometry" />
        </mxCell>
        <mxCell id="aWz43SULXHOgwargIqAo-11" value="" style="rounded=0;orthogonalLoop=1;jettySize=auto;html=1;endArrow=halfCircle;endFill=0;endSize=6;strokeWidth=1;sketch=0;exitX=0;exitY=0.5;exitDx=0;exitDy=0;" parent="1" source="aWz43SULXHOgwargIqAo-31" edge="1">
          <mxGeometry relative="1" as="geometry">
            <mxPoint x="-1010" y="1489" as="sourcePoint" />
            <mxPoint x="-1060" y="1554" as="targetPoint" />
          </mxGeometry>
        </mxCell>
        <mxCell id="aWz43SULXHOgwargIqAo-12" value="" style="rounded=0;orthogonalLoop=1;jettySize=auto;html=1;endArrow=oval;endFill=0;sketch=0;sourcePerimeterSpacing=0;targetPerimeterSpacing=0;endSize=10;exitX=1;exitY=0.5;exitDx=0;exitDy=0;" parent="1" source="aWz43SULXHOgwargIqAo-32" target="aWz43SULXHOgwargIqAo-13" edge="1">
          <mxGeometry relative="1" as="geometry">
            <mxPoint x="-1050" y="1369" as="sourcePoint" />
          </mxGeometry>
        </mxCell>
        <mxCell id="aWz43SULXHOgwargIqAo-13" value="" style="ellipse;whiteSpace=wrap;html=1;align=center;aspect=fixed;fillColor=none;strokeColor=none;resizable=0;perimeter=centerPerimeter;rotatable=0;allowArrows=0;points=[];outlineConnect=1;" parent="1" vertex="1">
          <mxGeometry x="-1130" y="1429" width="10" height="10" as="geometry" />
        </mxCell>
        <mxCell id="aWz43SULXHOgwargIqAo-14" value="«component»&lt;br&gt;&lt;b&gt;Printer Selection&lt;/b&gt;" style="html=1;dropTarget=0;whiteSpace=wrap;" parent="1" vertex="1">
          <mxGeometry x="-515" y="1508" width="180" height="90" as="geometry" />
        </mxCell>
        <mxCell id="aWz43SULXHOgwargIqAo-15" value="" style="shape=module;jettyWidth=8;jettyHeight=4;" parent="aWz43SULXHOgwargIqAo-14" vertex="1">
          <mxGeometry x="1" width="20" height="20" relative="1" as="geometry">
            <mxPoint x="-27" y="7" as="offset" />
          </mxGeometry>
        </mxCell>
        <mxCell id="aWz43SULXHOgwargIqAo-16" value="" style="rounded=0;orthogonalLoop=1;jettySize=auto;html=1;endArrow=halfCircle;endFill=0;endSize=6;strokeWidth=1;sketch=0;exitX=0;exitY=0.5;exitDx=0;exitDy=0;" parent="1" source="aWz43SULXHOgwargIqAo-29" edge="1">
          <mxGeometry relative="1" as="geometry">
            <mxPoint x="-670" y="1469" as="sourcePoint" />
            <mxPoint x="-650" y="1554" as="targetPoint" />
          </mxGeometry>
        </mxCell>
        <mxCell id="aWz43SULXHOgwargIqAo-17" value="" style="rounded=0;orthogonalLoop=1;jettySize=auto;html=1;endArrow=oval;endFill=0;sketch=0;sourcePerimeterSpacing=0;targetPerimeterSpacing=0;endSize=10;exitX=1;exitY=0.5;exitDx=0;exitDy=0;" parent="1" source="aWz43SULXHOgwargIqAo-30" edge="1">
          <mxGeometry relative="1" as="geometry">
            <mxPoint x="-960" y="1304" as="sourcePoint" />
            <mxPoint x="-650" y="1554" as="targetPoint" />
          </mxGeometry>
        </mxCell>
        <mxCell id="aWz43SULXHOgwargIqAo-18" value="" style="ellipse;whiteSpace=wrap;html=1;align=center;aspect=fixed;fillColor=none;strokeColor=none;resizable=0;perimeter=centerPerimeter;rotatable=0;allowArrows=0;points=[];outlineConnect=1;" parent="1" vertex="1">
          <mxGeometry x="-945" y="1299" width="10" height="10" as="geometry" />
        </mxCell>
        <mxCell id="aWz43SULXHOgwargIqAo-19" value="«component»&lt;br&gt;&lt;b&gt;File Validation&lt;/b&gt;" style="html=1;dropTarget=0;whiteSpace=wrap;" parent="1" vertex="1">
          <mxGeometry x="-520" y="1310" width="180" height="90" as="geometry" />
        </mxCell>
        <mxCell id="aWz43SULXHOgwargIqAo-20" value="" style="shape=module;jettyWidth=8;jettyHeight=4;" parent="aWz43SULXHOgwargIqAo-19" vertex="1">
          <mxGeometry x="1" width="20" height="20" relative="1" as="geometry">
            <mxPoint x="-27" y="7" as="offset" />
          </mxGeometry>
        </mxCell>
        <mxCell id="aWz43SULXHOgwargIqAo-21" value="" style="rounded=0;orthogonalLoop=1;jettySize=auto;html=1;endArrow=oval;endFill=0;sketch=0;sourcePerimeterSpacing=0;targetPerimeterSpacing=0;endSize=10;exitX=1;exitY=0.5;exitDx=0;exitDy=0;" parent="1" source="aWz43SULXHOgwargIqAo-25" edge="1">
          <mxGeometry relative="1" as="geometry">
            <mxPoint x="-950" y="1684" as="sourcePoint" />
            <mxPoint x="-220" y="1439" as="targetPoint" />
            <Array as="points">
              <mxPoint x="-220" y="1354" />
            </Array>
          </mxGeometry>
        </mxCell>
        <mxCell id="aWz43SULXHOgwargIqAo-22" value="" style="rounded=0;orthogonalLoop=1;jettySize=auto;html=1;endArrow=halfCircle;endFill=0;endSize=6;strokeWidth=1;sketch=0;exitX=0;exitY=0.5;exitDx=0;exitDy=0;" parent="1" source="aWz43SULXHOgwargIqAo-27" edge="1">
          <mxGeometry relative="1" as="geometry">
            <mxPoint x="-150" y="1439" as="sourcePoint" />
            <mxPoint x="-220" y="1439" as="targetPoint" />
          </mxGeometry>
        </mxCell>
        <mxCell id="aWz43SULXHOgwargIqAo-23" value="«component»&lt;br&gt;&lt;b&gt;Printing Cofiguration&lt;/b&gt;" style="html=1;dropTarget=0;whiteSpace=wrap;" parent="1" vertex="1">
          <mxGeometry x="-30" y="1389" width="180" height="90" as="geometry" />
        </mxCell>
        <mxCell id="aWz43SULXHOgwargIqAo-24" value="" style="shape=module;jettyWidth=8;jettyHeight=4;" parent="aWz43SULXHOgwargIqAo-23" vertex="1">
          <mxGeometry x="1" width="20" height="20" relative="1" as="geometry">
            <mxPoint x="-27" y="7" as="offset" />
          </mxGeometry>
        </mxCell>
        <mxCell id="aWz43SULXHOgwargIqAo-25" value="" style="html=1;rounded=0;" parent="1" vertex="1">
          <mxGeometry x="-350" y="1345" width="20" height="20" as="geometry" />
        </mxCell>
        <mxCell id="aWz43SULXHOgwargIqAo-26" value="" style="html=1;rounded=0;" parent="1" vertex="1">
          <mxGeometry x="140" y="1429" width="20" height="20" as="geometry" />
        </mxCell>
        <mxCell id="aWz43SULXHOgwargIqAo-27" value="" style="html=1;rounded=0;" parent="1" vertex="1">
          <mxGeometry x="-40" y="1429" width="20" height="20" as="geometry" />
        </mxCell>
        <mxCell id="aWz43SULXHOgwargIqAo-28" value="" style="html=1;rounded=0;" parent="1" vertex="1">
          <mxGeometry x="-345" y="1543" width="20" height="20" as="geometry" />
        </mxCell>
        <mxCell id="aWz43SULXHOgwargIqAo-29" value="" style="html=1;rounded=0;" parent="1" vertex="1">
          <mxGeometry x="-525" y="1543" width="20" height="20" as="geometry" />
        </mxCell>
        <mxCell id="aWz43SULXHOgwargIqAo-30" value="" style="html=1;rounded=0;" parent="1" vertex="1">
          <mxGeometry x="-790" y="1544" width="20" height="20" as="geometry" />
        </mxCell>
        <mxCell id="aWz43SULXHOgwargIqAo-31" value="" style="html=1;rounded=0;" parent="1" vertex="1">
          <mxGeometry x="-970" y="1544" width="20" height="20" as="geometry" />
        </mxCell>
        <mxCell id="aWz43SULXHOgwargIqAo-33" value="" style="rounded=0;orthogonalLoop=1;jettySize=auto;html=1;endArrow=oval;endFill=0;sketch=0;sourcePerimeterSpacing=0;targetPerimeterSpacing=0;endSize=10;exitX=1;exitY=0.5;exitDx=0;exitDy=0;" parent="1" source="aWz43SULXHOgwargIqAo-28" edge="1">
          <mxGeometry relative="1" as="geometry">
            <mxPoint x="-390" y="1364" as="sourcePoint" />
            <mxPoint x="-220" y="1439" as="targetPoint" />
            <Array as="points">
              <mxPoint x="-220" y="1554" />
            </Array>
          </mxGeometry>
        </mxCell>
        <mxCell id="aWz43SULXHOgwargIqAo-36" value="" style="html=1;verticalAlign=bottom;labelBackgroundColor=none;endArrow=open;endFill=0;dashed=1;rounded=0;" parent="1" edge="1">
          <mxGeometry width="160" relative="1" as="geometry">
            <mxPoint x="-1060" y="1549" as="sourcePoint" />
            <mxPoint x="-1120" y="1449" as="targetPoint" />
            <Array as="points">
              <mxPoint x="-1120" y="1549" />
              <mxPoint x="-1120" y="1489" />
            </Array>
          </mxGeometry>
        </mxCell>
        <mxCell id="aWz43SULXHOgwargIqAo-37" value="" style="ellipse;whiteSpace=wrap;html=1;align=center;aspect=fixed;fillColor=none;strokeColor=none;resizable=0;perimeter=centerPerimeter;rotatable=0;allowArrows=0;points=[];outlineConnect=1;" parent="1" vertex="1">
          <mxGeometry x="200" y="1649" width="10" height="10" as="geometry" />
        </mxCell>
        <mxCell id="aWz43SULXHOgwargIqAo-38" value="«component»&lt;br&gt;&lt;b&gt;Page payment&lt;/b&gt;" style="html=1;dropTarget=0;whiteSpace=wrap;" parent="1" vertex="1">
          <mxGeometry x="1300" y="1149" width="180" height="90" as="geometry" />
        </mxCell>
        <mxCell id="aWz43SULXHOgwargIqAo-39" value="" style="shape=module;jettyWidth=8;jettyHeight=4;" parent="aWz43SULXHOgwargIqAo-38" vertex="1">
          <mxGeometry x="1" width="20" height="20" relative="1" as="geometry">
            <mxPoint x="-27" y="7" as="offset" />
          </mxGeometry>
        </mxCell>
        <mxCell id="aWz43SULXHOgwargIqAo-40" value="" style="rounded=0;orthogonalLoop=1;jettySize=auto;html=1;endArrow=halfCircle;endFill=0;endSize=6;strokeWidth=1;sketch=0;exitX=0;exitY=0.5;exitDx=0;exitDy=0;" parent="1" source="aWz43SULXHOgwargIqAo-41" edge="1">
          <mxGeometry relative="1" as="geometry">
            <mxPoint x="-140" y="1449" as="sourcePoint" />
            <mxPoint x="1050" y="1189" as="targetPoint" />
          </mxGeometry>
        </mxCell>
        <mxCell id="aWz43SULXHOgwargIqAo-41" value="" style="html=1;rounded=0;" parent="1" vertex="1">
          <mxGeometry x="1290" y="1179" width="20" height="20" as="geometry" />
        </mxCell>
        <mxCell id="aWz43SULXHOgwargIqAo-42" value="«component»&lt;br&gt;&lt;b&gt;Printing Service&lt;/b&gt;" style="html=1;dropTarget=0;whiteSpace=wrap;" parent="1" vertex="1">
          <mxGeometry x="1300" y="1404" width="180" height="90" as="geometry" />
        </mxCell>
        <mxCell id="aWz43SULXHOgwargIqAo-43" value="" style="shape=module;jettyWidth=8;jettyHeight=4;" parent="aWz43SULXHOgwargIqAo-42" vertex="1">
          <mxGeometry x="1" width="20" height="20" relative="1" as="geometry">
            <mxPoint x="-27" y="7" as="offset" />
          </mxGeometry>
        </mxCell>
        <mxCell id="aWz43SULXHOgwargIqAo-44" value="" style="rounded=0;orthogonalLoop=1;jettySize=auto;html=1;endArrow=halfCircle;endFill=0;endSize=6;strokeWidth=1;sketch=0;exitX=0;exitY=0.5;exitDx=0;exitDy=0;" parent="1" source="aWz43SULXHOgwargIqAo-42" edge="1">
          <mxGeometry relative="1" as="geometry">
            <mxPoint x="560" y="1474" as="sourcePoint" />
            <mxPoint x="1020" y="1450" as="targetPoint" />
          </mxGeometry>
        </mxCell>
        <mxCell id="aWz43SULXHOgwargIqAo-45" value="" style="rounded=0;orthogonalLoop=1;jettySize=auto;html=1;endArrow=oval;endFill=0;sketch=0;sourcePerimeterSpacing=0;targetPerimeterSpacing=0;endSize=10;exitX=1;exitY=0.5;exitDx=0;exitDy=0;" parent="1" source="aWz43SULXHOgwargIqAo-58" edge="1">
          <mxGeometry relative="1" as="geometry">
            <mxPoint x="520" y="1474" as="sourcePoint" />
            <mxPoint x="1020" y="1449" as="targetPoint" />
          </mxGeometry>
        </mxCell>
        <mxCell id="aWz43SULXHOgwargIqAo-46" value="" style="ellipse;whiteSpace=wrap;html=1;align=center;aspect=fixed;fillColor=none;strokeColor=none;resizable=0;perimeter=centerPerimeter;rotatable=0;allowArrows=0;points=[];outlineConnect=1;" parent="1" vertex="1">
          <mxGeometry x="535" y="1469" width="10" height="10" as="geometry" />
        </mxCell>
        <mxCell id="aWz43SULXHOgwargIqAo-47" value="" style="html=1;verticalAlign=bottom;labelBackgroundColor=none;endArrow=open;endFill=0;dashed=1;rounded=0;" parent="1" edge="1">
          <mxGeometry width="160" relative="1" as="geometry">
            <mxPoint x="1050" y="1189" as="sourcePoint" />
            <mxPoint x="-1120" y="1419" as="targetPoint" />
            <Array as="points">
              <mxPoint x="-1120" y="1189" />
            </Array>
          </mxGeometry>
        </mxCell>
        <mxCell id="aWz43SULXHOgwargIqAo-48" value="" style="html=1;verticalAlign=bottom;labelBackgroundColor=none;endArrow=open;endFill=0;dashed=1;rounded=0;" parent="1" edge="1">
          <mxGeometry width="160" relative="1" as="geometry">
            <mxPoint x="1050" y="1189" as="sourcePoint" />
            <mxPoint x="1020" y="1439" as="targetPoint" />
            <Array as="points">
              <mxPoint x="1020" y="1189" />
            </Array>
          </mxGeometry>
        </mxCell>
        <mxCell id="aWz43SULXHOgwargIqAo-49" value="«component»&lt;br&gt;&lt;b&gt;Remaining page checking&lt;/b&gt;" style="html=1;dropTarget=0;whiteSpace=wrap;" parent="1" vertex="1">
          <mxGeometry x="485" y="1395" width="180" height="90" as="geometry" />
        </mxCell>
        <mxCell id="aWz43SULXHOgwargIqAo-50" value="" style="shape=module;jettyWidth=8;jettyHeight=4;" parent="aWz43SULXHOgwargIqAo-49" vertex="1">
          <mxGeometry x="1" width="20" height="20" relative="1" as="geometry">
            <mxPoint x="-27" y="7" as="offset" />
          </mxGeometry>
        </mxCell>
        <mxCell id="aWz43SULXHOgwargIqAo-51" value="«component»&lt;br&gt;&lt;b&gt;Student remaining page checking&lt;/b&gt;" style="html=1;dropTarget=0;whiteSpace=wrap;" parent="1" vertex="1">
          <mxGeometry x="305" y="1605" width="180" height="90" as="geometry" />
        </mxCell>
        <mxCell id="aWz43SULXHOgwargIqAo-52" value="" style="shape=module;jettyWidth=8;jettyHeight=4;" parent="aWz43SULXHOgwargIqAo-51" vertex="1">
          <mxGeometry x="1" width="20" height="20" relative="1" as="geometry">
            <mxPoint x="-27" y="7" as="offset" />
          </mxGeometry>
        </mxCell>
        <mxCell id="aWz43SULXHOgwargIqAo-53" value="«component»&lt;br&gt;&lt;b&gt;Printer remaining page checking&lt;/b&gt;" style="html=1;dropTarget=0;whiteSpace=wrap;" parent="1" vertex="1">
          <mxGeometry x="665" y="1598" width="180" height="90" as="geometry" />
        </mxCell>
        <mxCell id="aWz43SULXHOgwargIqAo-54" value="" style="shape=module;jettyWidth=8;jettyHeight=4;" parent="aWz43SULXHOgwargIqAo-53" vertex="1">
          <mxGeometry x="1" width="20" height="20" relative="1" as="geometry">
            <mxPoint x="-27" y="7" as="offset" />
          </mxGeometry>
        </mxCell>
        <mxCell id="aWz43SULXHOgwargIqAo-55" value="" style="rounded=0;orthogonalLoop=1;jettySize=auto;html=1;endArrow=halfCircle;endFill=0;endSize=6;strokeWidth=1;sketch=0;exitX=0.5;exitY=1;exitDx=0;exitDy=0;" parent="1" source="aWz43SULXHOgwargIqAo-49" edge="1">
          <mxGeometry relative="1" as="geometry">
            <mxPoint x="575" y="1585" as="sourcePoint" />
            <mxPoint x="575" y="1595" as="targetPoint" />
          </mxGeometry>
        </mxCell>
        <mxCell id="aWz43SULXHOgwargIqAo-56" value="" style="rounded=0;orthogonalLoop=1;jettySize=auto;html=1;endArrow=oval;endFill=0;sketch=0;sourcePerimeterSpacing=0;targetPerimeterSpacing=0;endSize=10;exitX=1;exitY=0.5;exitDx=0;exitDy=0;" parent="1" source="aWz43SULXHOgwargIqAo-51" edge="1">
          <mxGeometry relative="1" as="geometry">
            <mxPoint x="555" y="1250" as="sourcePoint" />
            <mxPoint x="575" y="1595" as="targetPoint" />
          </mxGeometry>
        </mxCell>
        <mxCell id="aWz43SULXHOgwargIqAo-57" value="" style="rounded=0;orthogonalLoop=1;jettySize=auto;html=1;endArrow=oval;endFill=0;sketch=0;sourcePerimeterSpacing=0;targetPerimeterSpacing=0;endSize=10;exitX=0;exitY=0.5;exitDx=0;exitDy=0;" parent="1" source="aWz43SULXHOgwargIqAo-53" edge="1">
          <mxGeometry relative="1" as="geometry">
            <mxPoint x="495" y="1660" as="sourcePoint" />
            <mxPoint x="575" y="1595" as="targetPoint" />
          </mxGeometry>
        </mxCell>
        <mxCell id="aWz43SULXHOgwargIqAo-58" value="" style="html=1;rounded=0;" parent="1" vertex="1">
          <mxGeometry x="660" y="1439" width="20" height="20" as="geometry" />
        </mxCell>
        <mxCell id="aWz43SULXHOgwargIqAo-59" value="" style="html=1;rounded=0;" parent="1" vertex="1">
          <mxGeometry x="475" y="1439" width="20" height="20" as="geometry" />
        </mxCell>
        <mxCell id="aWz43SULXHOgwargIqAo-61" value="" style="rounded=0;orthogonalLoop=1;jettySize=auto;html=1;endArrow=oval;endFill=0;sketch=0;sourcePerimeterSpacing=0;targetPerimeterSpacing=0;endSize=10;exitX=1;exitY=0.5;exitDx=0;exitDy=0;" parent="1" source="aWz43SULXHOgwargIqAo-26" edge="1">
          <mxGeometry relative="1" as="geometry">
            <mxPoint x="210" y="1395" as="sourcePoint" />
            <mxPoint x="1020" y="1450" as="targetPoint" />
            <Array as="points">
              <mxPoint x="190" y="1250" />
              <mxPoint x="550" y="1250" />
              <mxPoint x="910" y="1250" />
            </Array>
          </mxGeometry>
        </mxCell>
        <mxCell id="aWz43SULXHOgwargIqAo-62" value="" style="ellipse;whiteSpace=wrap;html=1;align=center;aspect=fixed;fillColor=none;strokeColor=none;resizable=0;perimeter=centerPerimeter;rotatable=0;allowArrows=0;points=[];outlineConnect=1;" parent="1" vertex="1">
          <mxGeometry x="225" y="1390" width="10" height="10" as="geometry" />
        </mxCell>
        <mxCell id="TUaaf9YP_ER2doJHWSKb-1" value="«component»&lt;br&gt;&lt;b&gt;User Authorization&lt;/b&gt;" style="html=1;dropTarget=0;whiteSpace=wrap;" vertex="1" parent="1">
          <mxGeometry x="-1410" y="1389" width="180" height="90" as="geometry" />
        </mxCell>
        <mxCell id="TUaaf9YP_ER2doJHWSKb-2" value="" style="shape=module;jettyWidth=8;jettyHeight=4;" vertex="1" parent="TUaaf9YP_ER2doJHWSKb-1">
          <mxGeometry x="1" width="20" height="20" relative="1" as="geometry">
            <mxPoint x="-27" y="7" as="offset" />
          </mxGeometry>
        </mxCell>
        <mxCell id="aWz43SULXHOgwargIqAo-32" value="" style="html=1;rounded=0;" parent="1" vertex="1">
          <mxGeometry x="-1240" y="1424" width="20" height="20" as="geometry" />
        </mxCell>
        <mxCell id="TUaaf9YP_ER2doJHWSKb-8" value="" style="rounded=0;orthogonalLoop=1;jettySize=auto;html=1;endArrow=halfCircle;endFill=0;endSize=6;strokeWidth=1;sketch=0;exitX=0;exitY=0.5;exitDx=0;exitDy=0;" edge="1" parent="1" source="TUaaf9YP_ER2doJHWSKb-10">
          <mxGeometry relative="1" as="geometry">
            <mxPoint x="-1490" y="1354" as="sourcePoint" />
            <mxPoint x="-1490" y="1439" as="targetPoint" />
          </mxGeometry>
        </mxCell>
        <mxCell id="TUaaf9YP_ER2doJHWSKb-9" value="" style="rounded=0;orthogonalLoop=1;jettySize=auto;html=1;endArrow=oval;endFill=0;sketch=0;sourcePerimeterSpacing=0;targetPerimeterSpacing=0;endSize=10;exitX=1;exitY=0.5;exitDx=0;exitDy=0;" edge="1" parent="1" source="TUaaf9YP_ER2doJHWSKb-11">
          <mxGeometry relative="1" as="geometry">
            <mxPoint x="-1780" y="1189" as="sourcePoint" />
            <mxPoint x="-1490" y="1439" as="targetPoint" />
          </mxGeometry>
        </mxCell>
        <mxCell id="TUaaf9YP_ER2doJHWSKb-10" value="" style="html=1;rounded=0;" vertex="1" parent="1">
          <mxGeometry x="-1420" y="1429" width="20" height="20" as="geometry" />
        </mxCell>
        <mxCell id="TUaaf9YP_ER2doJHWSKb-11" value="" style="html=1;rounded=0;" vertex="1" parent="1">
          <mxGeometry x="-1610" y="1429" width="20" height="20" as="geometry" />
        </mxCell>
        <mxCell id="TUaaf9YP_ER2doJHWSKb-12" value="required user infomation" style="text;html=1;align=center;verticalAlign=middle;whiteSpace=wrap;rounded=0;" vertex="1" parent="1">
          <mxGeometry x="-1590" y="1404" width="180" height="30" as="geometry" />
        </mxCell>
        <mxCell id="TUaaf9YP_ER2doJHWSKb-13" value="required user infomation &amp;amp; role" style="text;html=1;align=center;verticalAlign=middle;whiteSpace=wrap;rounded=0;" vertex="1" parent="1">
          <mxGeometry x="-1160" y="1564" width="180" height="30" as="geometry" />
        </mxCell>
        <mxCell id="TUaaf9YP_ER2doJHWSKb-14" value="required booking option &amp;amp; infomation" style="text;html=1;align=center;verticalAlign=middle;whiteSpace=wrap;rounded=0;" vertex="1" parent="1">
          <mxGeometry x="-740" y="1569" width="180" height="30" as="geometry" />
        </mxCell>
        <mxCell id="TUaaf9YP_ER2doJHWSKb-16" value="require validation result" style="text;html=1;align=center;verticalAlign=middle;whiteSpace=wrap;rounded=0;" vertex="1" parent="1">
          <mxGeometry x="-230" y="1409" width="180" height="30" as="geometry" />
        </mxCell>
        <mxCell id="TUaaf9YP_ER2doJHWSKb-17" value="require printer infomation" style="text;html=1;align=center;verticalAlign=middle;whiteSpace=wrap;rounded=0;" vertex="1" parent="1">
          <mxGeometry x="-230" y="1444" width="180" height="30" as="geometry" />
        </mxCell>
        <mxCell id="TUaaf9YP_ER2doJHWSKb-18" value="«component»&lt;br&gt;&lt;b&gt;File Uploading &amp;amp; Saving&lt;/b&gt;" style="html=1;dropTarget=0;whiteSpace=wrap;" vertex="1" parent="1">
          <mxGeometry x="-960" y="1310" width="180" height="90" as="geometry" />
        </mxCell>
        <mxCell id="TUaaf9YP_ER2doJHWSKb-19" value="" style="shape=module;jettyWidth=8;jettyHeight=4;" vertex="1" parent="TUaaf9YP_ER2doJHWSKb-18">
          <mxGeometry x="1" width="20" height="20" relative="1" as="geometry">
            <mxPoint x="-27" y="7" as="offset" />
          </mxGeometry>
        </mxCell>
        <mxCell id="TUaaf9YP_ER2doJHWSKb-20" value="" style="html=1;rounded=0;" vertex="1" parent="1">
          <mxGeometry x="-790" y="1350" width="20" height="20" as="geometry" />
        </mxCell>
        <mxCell id="TUaaf9YP_ER2doJHWSKb-22" value="" style="html=1;rounded=0;" vertex="1" parent="1">
          <mxGeometry x="-525" y="1350" width="20" height="20" as="geometry" />
        </mxCell>
        <mxCell id="TUaaf9YP_ER2doJHWSKb-25" value="" style="rounded=0;orthogonalLoop=1;jettySize=auto;html=1;endArrow=halfCircle;endFill=0;endSize=6;strokeWidth=1;sketch=0;exitX=0;exitY=0.5;exitDx=0;exitDy=0;" edge="1" parent="1">
          <mxGeometry relative="1" as="geometry">
            <mxPoint x="-525" y="1358" as="sourcePoint" />
            <mxPoint x="-650" y="1359" as="targetPoint" />
          </mxGeometry>
        </mxCell>
        <mxCell id="TUaaf9YP_ER2doJHWSKb-26" value="" style="rounded=0;orthogonalLoop=1;jettySize=auto;html=1;endArrow=oval;endFill=0;sketch=0;sourcePerimeterSpacing=0;targetPerimeterSpacing=0;endSize=10;exitX=1;exitY=0.5;exitDx=0;exitDy=0;" edge="1" parent="1">
          <mxGeometry relative="1" as="geometry">
            <mxPoint x="-770" y="1359" as="sourcePoint" />
            <mxPoint x="-650" y="1359" as="targetPoint" />
          </mxGeometry>
        </mxCell>
        <mxCell id="TUaaf9YP_ER2doJHWSKb-27" value="required file format" style="text;html=1;align=center;verticalAlign=middle;whiteSpace=wrap;rounded=0;" vertex="1" parent="1">
          <mxGeometry x="-740" y="1374" width="180" height="30" as="geometry" />
        </mxCell>
        <mxCell id="TUaaf9YP_ER2doJHWSKb-28" value="" style="rounded=0;orthogonalLoop=1;jettySize=auto;html=1;endArrow=halfCircle;endFill=0;endSize=6;strokeWidth=1;sketch=0;exitX=0;exitY=0.75;exitDx=0;exitDy=0;" edge="1" parent="1" source="TUaaf9YP_ER2doJHWSKb-22">
          <mxGeometry relative="1" as="geometry">
            <mxPoint x="-250" y="990" as="sourcePoint" />
            <mxPoint x="-410" y="1470" as="targetPoint" />
            <Array as="points">
              <mxPoint x="-525" y="1470" />
            </Array>
          </mxGeometry>
        </mxCell>
        <mxCell id="TUaaf9YP_ER2doJHWSKb-29" value="" style="rounded=0;orthogonalLoop=1;jettySize=auto;html=1;endArrow=oval;endFill=0;sketch=0;sourcePerimeterSpacing=0;targetPerimeterSpacing=0;endSize=10;exitX=1;exitY=0.5;exitDx=0;exitDy=0;" edge="1" parent="1" source="aWz43SULXHOgwargIqAo-28">
          <mxGeometry relative="1" as="geometry">
            <mxPoint x="-495" y="991" as="sourcePoint" />
            <mxPoint x="-410" y="1470" as="targetPoint" />
            <Array as="points">
              <mxPoint x="-325" y="1470" />
            </Array>
          </mxGeometry>
        </mxCell>
        <mxCell id="TUaaf9YP_ER2doJHWSKb-33" value="require printer infomation" style="text;html=1;align=center;verticalAlign=middle;whiteSpace=wrap;rounded=0;" vertex="1" parent="1">
          <mxGeometry x="-510" y="1434" width="180" height="30" as="geometry" />
        </mxCell>
        <mxCell id="TUaaf9YP_ER2doJHWSKb-34" style="edgeStyle=orthogonalEdgeStyle;rounded=0;orthogonalLoop=1;jettySize=auto;html=1;exitX=0.5;exitY=1;exitDx=0;exitDy=0;" edge="1" parent="1">
          <mxGeometry relative="1" as="geometry">
            <mxPoint x="-375" y="1036" as="sourcePoint" />
            <mxPoint x="-375" y="1036" as="targetPoint" />
          </mxGeometry>
        </mxCell>
        <mxCell id="TUaaf9YP_ER2doJHWSKb-35" value="required user infomation&amp;nbsp;" style="text;html=1;align=center;verticalAlign=middle;whiteSpace=wrap;rounded=0;" vertex="1" parent="1">
          <mxGeometry x="940" y="1149" width="180" height="30" as="geometry" />
        </mxCell>
        <mxCell id="TUaaf9YP_ER2doJHWSKb-36" value="require page check result &amp;amp; printing configuration" style="text;html=1;align=center;verticalAlign=middle;whiteSpace=wrap;rounded=0;" vertex="1" parent="1">
          <mxGeometry x="970" y="1464" width="180" height="30" as="geometry" />
        </mxCell>
        <mxCell id="TUaaf9YP_ER2doJHWSKb-37" value="" style="html=1;rounded=0;" vertex="1" parent="1">
          <mxGeometry x="1290" y="1439" width="20" height="20" as="geometry" />
        </mxCell>
      </root>
    </mxGraphModel>
  </diagram>
</mxfile>
